<?xml version="1.0" encoding="utf-8"?>
<svg version="1.1" id="base" xmlns="http://www.w3.org/2000/svg" xmlns:xlink="http://www.w3.org/1999/xlink" x="0px" y="0px"
	 width="24px" height="24px" viewBox="0 0 24 24" enable-background="new 0 0 24 24" xml:space="preserve">
    <path fill="#FFFFFF" d="M12,1.3C6.1,1.3,1.4,6,1.4,11.9S6.1,22.5,12,22.5c3.6,0,6.8-1.8,8.7-4.5c0.3-0.4,0.6-0.9,0.8-1.3
				c0.7-1.4,1.1-3.1,1.1-4.8C22.6,6,17.9,1.3,12,1.3z M10,8c-2.8,0-4.5,1.2-4.5,3.3v1.2c0,2.3,2.2,5.5,4.5,5.5h3.5v-2H10
				c-1,0-2.5-2.1-2.5-3.5v-1.2c0-0.8,0.8-1.3,2.5-1.3h3.5v2.5c0,2.2,1.1,5.5,3.6,5.5h2.4c-1.8,2.2-4.5,3.5-7.5,3.5
				c-5.3,0-9.6-4.3-9.6-9.7S6.7,2.3,12,2.3s9.7,4.3,9.7,9.6c0,1.5-0.3,2.9-0.9,4.1h-3.6c-0.7,0-1.6-1.9-1.6-3.5V8H10z"/>
</svg>