<?xml version="1.0" encoding="utf-8"?>
<svg version="1.1" id="base" xmlns="http://www.w3.org/2000/svg" xmlns:xlink="http://www.w3.org/1999/xlink" x="0px" y="0px"
	 width="24px" height="24px" viewBox="0 0 24 24" enable-background="new 0 0 24 24" xml:space="preserve">
    <path fill="#404040" d="M16.5,10.4c0,1.2-0.6,2.1-1.4,2.1c-0.8,0-1.4-0.9-1.4-2.1c0-1.2,0.6-2.1,1.4-2.1
					C15.9,8.3,16.5,9.3,16.5,10.4z"/>
    <path fill="#404040" d="M10.3,10.4c0,1.2-0.6,2.1-1.4,2.1c-0.8,0-1.4-0.9-1.4-2.1c0-1.2,0.6-2.1,1.4-2.1
					C9.7,8.3,10.3,9.3,10.3,10.4z"/>
    <path fill="#404040" d="M20.6,7.1c-1.1-2.4-2.5-5.9-8.6-5.9H12c-6,0-7.5,3.5-8.6,5.9c-1.1,2.4-2.2,11-2.2,11s0,2.4,3,2.4
					c1.3,0,1.3,0,1.3,0l-0.3-4.8c1.5,2.1,4,3.5,6.8,3.5c2.8,0,5.3-1.4,6.8-3.5l-0.3,4.8c0,0,0,0,1.3,0c3,0,3-2.4,3-2.4
					S21.7,9.5,20.6,7.1z M12,17.9c-3.8,0-7-3.1-7-7c0-0.7,0.1-1.4,0.3-2c3.9-1.4,5.5-3.3,6.2-4.9C11.8,3.3,12,2.8,12,2.3
					c0,0.5,0.2,1,0.4,1.6c0.7,1.6,2.3,3.5,6.3,5c0.2,0.6,0.3,1.3,0.3,2C19,14.8,15.9,17.9,12,17.9z"/>
    <path fill="#404040" d="M15,14.8c0,1.1-1.3,2-3,2s-3-0.9-3-2c0,0.2,1.3,0.5,3,0.5C13.6,15.2,15,15,15,14.8z"/>
</svg>