<?xml version="1.0" encoding="utf-8"?>
<svg version="1.1" id="base" xmlns="http://www.w3.org/2000/svg" xmlns:xlink="http://www.w3.org/1999/xlink" x="0px" y="0px"
	 width="24px" height="24px" viewBox="0 0 24 24" enable-background="new 0 0 24 24" xml:space="preserve">
    <path fill="#404040" d="M13,9.9c0,0.8,0.7,1.5,1.5,1.5c0.8,0,1.5-0.6,1.5-1.5s-0.7-1.5-1.5-1.5C13.7,8.5,13,9.1,13,9.9L13,9.9z"
					/>
    <path fill="#404040" d="M10.5,9.9c0,0.8-0.7,1.5-1.5,1.5c-0.8,0-1.5-0.6-1.5-1.5s0.7-1.5,1.5-1.5C9.8,8.5,10.5,9.1,10.5,9.9
					L10.5,9.9z"/>
    <path fill="#404040" d="M20.2,22.8H3.8c0-1.3,0.5-2.6,1.3-3.5c0.8-0.9,2-1.4,3.2-1.4h1.4l2.3,3.5l2.3-3.5h1.4
					C18.2,17.9,20.2,20.1,20.2,22.8z"/>
    <path fill="#404040" d="M19.1,7c-1.3-4.5-3.9-5.7-6.8-5.8h-0.4c-0.3,0-0.5,0-0.7,0C7.7,1.6,5,4.7,5,8.4c0,0.1,0,1.5,0,1.5
						c0,4.1,3.3,7.4,7.1,7.4h0.2c3.8,0,7-3.3,7-7.4V8.6C19.2,8.1,19.1,7.1,19.1,7z M18.3,9.9c0,3.6-2.7,6.5-6,6.5h-0.4
						c-3.3,0-6-2.9-6-6.5V8.7l8-3.9l4.4,2.6c0,0,0.1,0.8,0.1,1.2V9.9z"/>
    <path fill="#404040" d="M12.2,15.6h-0.3c-1,0-2-0.3-2.9-1c-0.2-0.2-0.3-0.5-0.1-0.7c0.2-0.2,0.5-0.3,0.7-0.1
						c0.7,0.5,1.5,0.8,2.4,0.8h0.3c0.8,0,1.6-0.3,2.4-0.8c0.2-0.2,0.5-0.1,0.7,0.1c0.2,0.2,0.1,0.5-0.1,0.7
						C14.3,15.3,13.3,15.6,12.2,15.6z"/>
</svg>