<?xml version="1.0" encoding="utf-8"?>
<svg version="1.1" id="base" xmlns="http://www.w3.org/2000/svg" xmlns:xlink="http://www.w3.org/1999/xlink" x="0px" y="0px"
	 width="24px" height="24px" viewBox="0 0 24 24" enable-background="new 0 0 24 24" xml:space="preserve">
    <path fill="#404040" d="M22,1.9C22,1.4,21.6,1,21.1,1h-7.2C13.4,1,13,1.4,13,1.9v20.2c0,0.5,0.4,0.9,0.9,0.9h7.2
	c0.5,0,0.9-0.4,0.9-0.9V1.9z M17.5,21.2c-1.5,0-2.7-1.2-2.7-2.7c0-1.5,1.2-2.7,2.7-2.7s2.7,1.2,2.7,2.7C20.2,20,19,21.2,17.5,21.2z
	 M20,13h-5V4h5V13z"/>
    <path fill="#404040" d="M11,1.9C11,1.4,10.6,1,10.1,1H2.9C2.4,1,2,1.4,2,1.9v20.2C2,22.6,2.4,23,2.9,23h7.2c0.5,0,0.9-0.4,0.9-0.9
	V1.9z M6.5,21.2c-1.5,0-2.7-1.2-2.7-2.7c0-1.5,1.2-2.7,2.7-2.7s2.7,1.2,2.7,2.7C9.2,20,8,21.2,6.5,21.2z M9,13H4V4h5V13z"/>
</svg>