<?xml version="1.0" encoding="utf-8"?>
<svg version="1.1" id="base" xmlns="http://www.w3.org/2000/svg" xmlns:xlink="http://www.w3.org/1999/xlink" x="0px" y="0px"
	 width="24px" height="24px" viewBox="0 0 24 24" enable-background="new 0 0 24 24" xml:space="preserve">
    <path fill="#404040" d="M12.9,1.2c-3.7,0-6.7,3-6.7,6.7c0,2,0.9,3.8,2.3,5l-3.8,7.3c-0.4,0.9-0.2,1.9,0.7,2.4v0c1,0.4,2,0.1,2.4-0.8
	l3.7-7.3c0.4,0.1,0.9,0.1,1.3,0.1c3.7,0,6.7-3,6.7-6.7C19.5,4.2,16.5,1.2,12.9,1.2z M12.9,12.7c-2.6,0-4.8-2.1-4.8-4.8
	c0-2.6,2.1-4.8,4.8-4.8c2.6,0,4.8,2.1,4.8,4.8C17.6,10.5,15.5,12.7,12.9,12.7z"/>
</svg>