<?xml version="1.0" encoding="utf-8"?>
<svg version="1.1" id="base" xmlns="http://www.w3.org/2000/svg" xmlns:xlink="http://www.w3.org/1999/xlink" x="0px" y="0px"
	 width="24px" height="24px" viewBox="0 0 24 24" enable-background="new 0 0 24 24" xml:space="preserve">
    <path fill="#43A047" d="M1.3,22.2C1.2,22.7,1.6,23.1,2,23c0.6-0.2,1.2-0.4,1.8-0.6c-0.7-0.7-1.3-1.3-2-2C1.7,21,1.5,21.6,1.3,22.2z
		"/>
    <path fill="#43A047" d="M15.6,2.6c2,2,4,4,6,6c0.2-0.2,0.4-0.4,0.5-0.5c1.1-1.1,1.1-2.9,0-4c-0.7-0.7-1.3-1.3-2-2
		c-1.1-1.1-2.9-1.1-4,0C16,2.3,15.8,2.5,15.6,2.6z"/>
    <polygon fill="#43A047" points="20.6,9.9 9.7,20.5 5.3,21.9 2.3,19 3.7,14.5 14.6,3.9 			"/>
</svg>