<?xml version="1.0" encoding="utf-8"?>
<svg version="1.1" id="base" xmlns="http://www.w3.org/2000/svg" xmlns:xlink="http://www.w3.org/1999/xlink" x="0px" y="0px"
	 width="24px" height="24px" viewBox="0 0 24 24" enable-background="new 0 0 24 24" xml:space="preserve">
    <path fill="#43A047" d="M11.3,1.2v8.1c0,0.7-0.6,1.6-1.2,1.6h0c-0.7,0-1.2,0.1-1.2,0.8v9.5c0,1-0.8,1.8-1.8,1.8h0
		c-1,0-1.8-0.8-1.8-1.8v-9.5c0-0.7-0.6-0.8-1.2-0.8h0c-0.7,0-1.2-0.5-1.2-1.2L3,1.2H4v7.3h1.2V1.2h1.2v7.3h1.2V1.2h1.2v7.3h1.2V1.2
		H11.3z"/>
    <path fill="#43A047" d="M21.2,2.3c0-0.7-0.5-1.2-1.2-1.2h-2.2c-0.4,0-2.5,3.6-2.5,8.5c0,3,0.9,4.1,1.6,4.5c0.4,0.2,0.7,0.7,0.7,1.2
		c0,1.4,0,4.1,0,5.9c0,1,0.8,1.8,1.8,1.8h0c1,0,1.8-0.8,1.8-1.8V2.3z"/>
</svg>