<?xml version="1.0" encoding="utf-8"?>
<svg version="1.1" id="base" xmlns="http://www.w3.org/2000/svg" xmlns:xlink="http://www.w3.org/1999/xlink" x="0px" y="0px"
	 width="24px" height="24px" viewBox="0 0 24 24" enable-background="new 0 0 24 24" xml:space="preserve">
    <path fill="#43A047" d="M23,4c0,1.1-0.9,2-2,2H3C1.9,6,1,5.1,1,4V3c0-1.1,0.9-2,2-2h18c1.1,0,2,0.9,2,2V4z"/>
    <path fill="#43A047" d="M23,21c0,1.1-0.9,2-2,2H3c-1.1,0-2-0.9-2-2v-1c0-1.1,0.9-2,2-2h18c1.1,0,2,0.9,2,2V21z"/>
    <path fill="#43A047" d="M23,12.5c0,1.1-0.9,2-2,2H3c-1.1,0-2-0.9-2-2v-1c0-1.1,0.9-2,2-2h18c1.1,0,2,0.9,2,2V12.5z"/>
</svg>