<?xml version="1.0" encoding="utf-8"?>
<svg version="1.1" id="base" xmlns="http://www.w3.org/2000/svg" xmlns:xlink="http://www.w3.org/1999/xlink" x="0px" y="0px"
	 width="24px" height="24px" viewBox="0 0 24 24" enable-background="new 0 0 24 24" xml:space="preserve">
    <path fill="#43A047" d="M20.5,2h-1.3c0-0.5-0.5-1-1-1h-0.8c-0.5,0-1,0.4-1,1h-2.9c0-0.5-0.5-1-1-1h-0.9c-0.5,0-1,0.4-1,1H7.8
		c0-0.5-0.5-1-1-1H6C5.5,1,5,1.5,5,2H3.5c-1.1,0-2,0.9-2,2v16c0,1.1,0.9,2,2,2h17c1.1,0,2-0.9,2-2V4C22.5,2.9,21.6,2,20.5,2z
		 M20.6,19c0,0.5-0.4,1-1,1h-15c-0.5,0-1-0.5-1-1l0-14c0-0.5,0.4-1,1-1H5v0.2c0,0.5,0.5,1,1,1h0.8c0.6,0,1-0.5,1-1V4h2.8v0.2
		c0,0.5,0.5,1,1,1h0.9c0.6,0,1-0.5,1-1V4h2.9v0.2c0,0.5,0.4,1,1,1h0.8c0.5,0,1-0.5,1-1V4h0.4c0.6,0,1,0.5,1,1V19z"/>
    <path fill="#43A047" d="M16.9,11.2v0.3h-10v-0.3c0-0.4,0.3-0.7,0.7-0.7h2.9c0,0,0,0,0-0.1v-0.2c0-0.3,0.3-0.6,0.7-0.6h1.7
			c0.4,0,0.7,0.3,0.7,0.6v0.2c0,0,0,0,0,0.1h2.9C16.6,10.5,16.9,10.8,16.9,11.2z"/>
    <path fill="#43A047" d="M18.1,13.3v0.3h-1.6v4.2c0,0.7-0.6,1.2-1.2,1.2H8.6c-0.7,0-1.2-0.5-1.2-1.2v-4.2H5.9v-0.3
			c0-0.4,0.3-0.7,0.7-0.7h0.8v-0.5h9.1v0.5h0.9C17.8,12.6,18.1,12.9,18.1,13.3z"/>
</svg>