<?xml version="1.0" encoding="utf-8"?>
<svg version="1.1" id="base" xmlns="http://www.w3.org/2000/svg" xmlns:xlink="http://www.w3.org/1999/xlink" x="0px" y="0px"
	 width="24px" height="24px" viewBox="0 0 24 24" enable-background="new 0 0 24 24" xml:space="preserve">
    <path fill="#FFFFFF" d="M21.8,12.4h-9.6l0-0.4h7.4c0.6,0,1.1-0.5,1.1-1.1v-0.1c0-0.6-0.5-1.1-1.1-1.1h-7.5H8.5l3.2-2.7
		c0.8-0.5,1-1.8,0.5-2.6c-0.5-0.8-1.6-1.1-2.4-0.6l-0.1,0L4.4,7.1c-1.7,1.1-3,2.9-3.2,4.9c-0.4,3.2,1.5,6.3,4.4,7.3l0.5,0.2
		c0.6,0.2,1.3,0.3,2,0.3h0.8h3.6H16c0.6,0,1.1-0.5,1.1-1.1v0c0-0.6-0.5-1.1-1.1-1.1h-3.6l0-0.4h7.1c0.6,0,1.1-0.5,1.1-1.1V16
		c0-0.6-0.5-1.1-1.1-1.1h-7.2l0-0.3h9.5c0.6,0,1.1-0.5,1.1-1.1v-0.1C22.9,12.8,22.4,12.4,21.8,12.4z"/>
</svg>