<?xml version="1.0" encoding="utf-8"?>
<svg version="1.1" id="base" xmlns="http://www.w3.org/2000/svg" xmlns:xlink="http://www.w3.org/1999/xlink" x="0px" y="0px"
	 width="24px" height="24px" viewBox="0 0 24 24" enable-background="new 0 0 24 24" xml:space="preserve">
    <path fill="#FFFFFF" d="M19,10.6V8.4c0-3.9-3.2-7.1-7.1-7.1c-3.9,0-7.1,3.2-7.1,7.1v2.2c-0.6,0.2-1,0.7-1,1.3v9.3
			c0,0.8,0.6,1.4,1.4,1.4h13.6c0.8,0,1.4-0.6,1.4-1.4V12C20.2,11.2,19.7,10.6,19,10.6z M7.1,8.4c0-2.6,2.1-4.7,4.7-4.7
			c2.6,0,4.7,2.1,4.7,4.7v2.1H7.1V8.4z M13.9,16.6c-0.2,0.2-0.4,0.3-0.6,0.5v2.6c0,0.8-0.7,1.5-1.5,1.5c-0.8,0-1.4-0.7-1.4-1.5v-2.6
			C9.5,16.6,9,15.6,9,14.6c0-0.8,0.3-1.5,0.9-2c0.5-0.5,1.2-0.9,2-0.9c0.8,0,1.5,0.3,2,0.9c0.5,0.5,0.9,1.2,0.9,2
			C14.8,15.4,14.4,16.1,13.9,16.6z"/>
</svg>