<?xml version="1.0" encoding="utf-8"?>
<svg version="1.1" id="base" xmlns="http://www.w3.org/2000/svg" xmlns:xlink="http://www.w3.org/1999/xlink" x="0px" y="0px"
	 width="24px" height="24px" viewBox="0 0 24 24" enable-background="new 0 0 24 24" xml:space="preserve">
    <path fill="#CB1517" d="M22.7,9.9L13.4,3C13,2.7,12.5,2.6,12,2.6l0,0c0,0,0,0,0,0c-0.4,0-0.8,0.2-1.2,0.4L1.3,9.9
	c-0.7,0.5-0.8,1.5-0.3,2.2l0,0c0.5,0.6,1.5,0.8,2.1,0.3L4,11.7v7.4c0,1.1,0.8,2.3,1.9,2.3h12.2c1.1,0,1.9-1.2,1.9-2.3v-7.4l0.9,0.7
	c0.7,0.5,1.6,0.4,2.1-0.3h0C23.6,11.4,23.4,10.4,22.7,9.9z M18,18.5c0,0.6-0.3,0.9-0.9,0.9H15v-7H9v7H6.9c-0.5,0-0.9-0.3-0.9-0.9
	v-8.1l2.7-2L12,6l3.3,2.4l2.7,2V18.5z"/>
</svg>