<?xml version="1.0" encoding="utf-8"?>
<svg version="1.1" id="base" xmlns="http://www.w3.org/2000/svg" xmlns:xlink="http://www.w3.org/1999/xlink" x="0px" y="0px"
	 width="24px" height="24px" viewBox="0 0 24 24" enable-background="new 0 0 24 24" xml:space="preserve">
    <path fill="#CB1517" d="M12,23C6,23,1.1,18.1,1.1,12.1S6,1.2,12,1.2s10.9,4.9,10.9,10.9S18,23,12,23z M12,2.2c-5.5,0-10,4.5-10,10
		s4.5,10,10,10s10-4.5,10-10S17.5,2.2,12,2.2z"/>
    <path fill="#CB1517" d="M11.7,6.1v4.4c0,0.4-0.3,0.9-0.7,0.9h0c-0.4,0-0.6,0.1-0.6,0.4v5.6c0,0.4-0.3,0.7-0.7,0.7H9
			c-0.4,0-0.7-0.3-0.7-0.7v-5.6c0-0.4-0.3-0.4-0.7-0.4h0c-0.4,0-0.7-0.3-0.7-0.7l0.1-4.7h0.6v4h0.7v-4H9v4h0.7v-4h0.7v4H11v-4H11.7z
			"/>
    <path fill="#CB1517" d="M17,6.8c0-0.4-0.3-0.7-0.7-0.7h-1.2c-0.2,0-1.4,2-1.4,4.7c0,1.7,0.5,2.3,0.9,2.5c0.2,0.1,0.3,0.4,0.3,0.6
			l0,3.5c0,0.4,0.3,0.7,0.7,0.7h0.7c0.4,0,0.7-0.3,0.7-0.7V6.8z"/>
</svg>