<?xml version="1.0" encoding="utf-8"?>
<svg version="1.1" id="base" xmlns="http://www.w3.org/2000/svg" xmlns:xlink="http://www.w3.org/1999/xlink" x="0px" y="0px"
	 width="24px" height="24px" viewBox="0 0 24 24" enable-background="new 0 0 24 24" xml:space="preserve">
    <rect x="9" y="15" transform="matrix(-1 -1.224647e-016 1.224647e-016 -1 26 32)" fill="#CB1517" width="8" height="2"/>
    <rect x="9" y="11" transform="matrix(-1 -1.224647e-016 1.224647e-016 -1 26 24)" fill="#CB1517" width="8" height="2"/>
    <rect x="9" y="7" transform="matrix(-1 -1.224647e-016 1.224647e-016 -1 26 16)" fill="#CB1517" width="8" height="2"/>
    <path fill="#CB1517" d="M7.5,6.9L7.5,6.9c0.6,0,1,0.4,1,1V8c0,0.5-0.4,1-1,1H7.5c-0.5,0-1-0.4-1-1V7.9C6.5,7.4,7,6.9,7.5,6.9z"/>
    <path fill="#CB1517" d="M7.5,11L7.5,11c0.6,0,1,0.4,1,1V12c0,0.5-0.4,1-1,1H7.5c-0.5,0-1-0.4-1-1V12C6.5,11.4,7,11,7.5,11z"/>
    <path fill="#CB1517" d="M7.5,15.1L7.5,15.1c0.6,0,1,0.4,1,1v0.1c0,0.5-0.4,1-1,1H7.5c-0.5,0-1-0.4-1-1V16C6.5,15.5,7,15.1,7.5,15.1
		z"/>
    <path fill="none" stroke="#CB1517" stroke-width="2" stroke-miterlimit="10" d="M2,2v20h20V4c0-1.1-0.9-2-2-2H2z"/>
</svg>