<?xml version="1.0" encoding="utf-8"?>
<svg version="1.1" id="base" xmlns="http://www.w3.org/2000/svg" xmlns:xlink="http://www.w3.org/1999/xlink" x="0px" y="0px"
	 width="24px" height="24px" viewBox="0 0 24 24" enable-background="new 0 0 24 24" xml:space="preserve">
    <path fill="#CB1517" d="M11.6,4.2V10c0,0.5-0.4,1.1-0.9,1.1h0c-0.5,0-0.8,0.1-0.8,0.6v6.8c0,0.7-0.6,1.3-1.3,1.3h0
		c-0.7,0-1.3-0.6-1.3-1.3v-6.8c0-0.5-0.4-0.6-0.9-0.6h0c-0.5,0-0.9-0.4-0.8-0.9l0.1-6h0.8v5.2h0.9V4.2h0.9v5.2H9V4.2h0.9v5.2h0.9
		V4.2H11.6z"/>
    <path fill="#CB1517" d="M18.4,5.1c0-0.5-0.4-0.9-0.9-0.9H16c-0.3,0-1.8,2.6-1.8,6c0,2.2,0.7,2.9,1.2,3.2c0.3,0.2,0.4,0.5,0.4,0.8
		l0,4.2c0,0.7,0.6,1.3,1.3,1.3h0c0.7,0,1.3-0.6,1.3-1.3V5.1z"/>
    <rect x="2" y="2" fill="none" stroke="#CB1517" stroke-width="2" stroke-miterlimit="10" width="20" height="20"/>
</svg>