<?xml version="1.0" encoding="utf-8"?>
<svg version="1.1" id="base" xmlns="http://www.w3.org/2000/svg" xmlns:xlink="http://www.w3.org/1999/xlink" x="0px" y="0px"
	 width="24px" height="24px" viewBox="0 0 24 24" enable-background="new 0 0 24 24" xml:space="preserve">
    <path fill="#CB1517" d="M22.3,19.4c0.8,0.8,0.8,2,0,2.8c-0.8,0.8-2,0.8-2.8,0L12,14.8l-7.4,7.4c-0.8,0.8-2,0.8-2.8,0
		c-0.8-0.8-0.8-2.1,0-2.8L9.2,12L1.8,4.6C1,3.8,1,2.5,1.8,1.8c0.4-0.4,0.9-0.6,1.4-0.6c0.5,0,1,0.2,1.4,0.6L12,9.2l7.4-7.4
		c0.4-0.4,0.9-0.6,1.4-0.6c0.5,0,1,0.2,1.4,0.6c0.8,0.8,0.8,2,0,2.8L14.8,12L22.3,19.4z"/>
</svg>