<?xml version="1.0" encoding="utf-8"?>
<svg version="1.1" id="base" xmlns="http://www.w3.org/2000/svg" xmlns:xlink="http://www.w3.org/1999/xlink" x="0px" y="0px"
	 width="24px" height="24px" viewBox="0 0 24 24" enable-background="new 0 0 24 24" xml:space="preserve">
    <rect x="8" y="18" fill="#46A449" width="3" height="5"/>
    <path fill="#46A449" d="M8,6V1h8v5c0,0.5-0.5,1-1,1H9C8.5,7,8,6.5,8,6z"/>
    <path fill="#46A449" d="M23,3.4v18c0,1.1-1.1,1.6-2.2,1.6H17v-4.6c0-0.5-0.5-1.4-1.1-1.4H8.1C7.5,17,7,17.9,7,18.4V23H4.7L1,19.8
		V3.4C1,2.3,2.1,1,3.2,1H6v6c0,1.1,0.9,2,2,2h8c1.1,0,2-0.9,2-2V1h2.8C21.9,1,23,2.3,23,3.4z"/>
    <path fill="#D80B7B" d="M16,1v5c0,0.5-0.5,1-1,1H9C8.5,7,8,6.5,8,6V1H16z"/>
    <path fill="#46A449" d="M16,1v5c0,0.5-0.5,1-1,1H9C8.5,7,8,6.5,8,6V1H16z"/>
</svg>